<svg width="172" height="50" viewBox="0 0 172 50" fill="none" xmlns="http://www.w3.org/2000/svg">
<rect width="172" height="50" rx="5" fill="#3B5998"/>
<path d="M26.5 19H23.5C23.2348 19 22.9804 19.1054 22.7929 19.2929C22.6054 19.4804 22.5 19.7348 22.5 20V23H26.5C26.556 22.9988 26.6116 23.011 26.6619 23.0357C26.7122 23.0604 26.7559 23.0968 26.7892 23.1419C26.8225 23.187 26.8446 23.2394 26.8534 23.2947C26.8622 23.3501 26.8576 23.4068 26.84 23.46L26.1 25.66C26.0667 25.7585 26.0036 25.8442 25.9193 25.9051C25.8351 25.9661 25.734 25.9992 25.63 26H22.5V33.5C22.5 33.6326 22.4473 33.7598 22.3536 33.8536C22.2598 33.9473 22.1326 34 22 34H19.5C19.3674 34 19.2402 33.9473 19.1464 33.8536C19.0527 33.7598 19 33.6326 19 33.5V26H17.5C17.3674 26 17.2402 25.9473 17.1464 25.8536C17.0527 25.7598 17 25.6326 17 25.5V23.5C17 23.3674 17.0527 23.2402 17.1464 23.1464C17.2402 23.0527 17.3674 23 17.5 23H19V20C19 18.9391 19.4214 17.9217 20.1716 17.1716C20.9217 16.4214 21.9391 16 23 16H26.5C26.6326 16 26.7598 16.0527 26.8536 16.1464C26.9473 16.2402 27 16.3674 27 16.5V18.5C27 18.6326 26.9473 18.7598 26.8536 18.8536C26.7598 18.9473 26.6326 19 26.5 19Z" fill="white"/>
<path d="M45.6445 25.6045H41.4678V30H40.1553V20.0469H46.3213V21.127H41.4678V24.5312H45.6445V25.6045ZM52.0153 30C51.9424 29.8542 51.8831 29.5944 51.8376 29.2207C51.2497 29.8314 50.5478 30.1367 49.7321 30.1367C49.0029 30.1367 48.4036 29.9316 47.9342 29.5215C47.4694 29.1068 47.237 28.5827 47.237 27.9492C47.237 27.179 47.5286 26.582 48.112 26.1582C48.6999 25.7298 49.5247 25.5156 50.5866 25.5156H51.8171V24.9346C51.8171 24.4925 51.6849 24.1416 51.4206 23.8818C51.1562 23.6175 50.7666 23.4854 50.2516 23.4854C49.8005 23.4854 49.4222 23.5993 49.1169 23.8271C48.8115 24.055 48.6589 24.3307 48.6589 24.6543H47.3874C47.3874 24.2852 47.5173 23.9297 47.777 23.5879C48.0413 23.2415 48.3968 22.9681 48.8434 22.7676C49.2946 22.5671 49.7891 22.4668 50.3268 22.4668C51.179 22.4668 51.8467 22.681 52.3298 23.1094C52.8128 23.5332 53.0635 24.1188 53.0817 24.8662V28.2705C53.0817 28.9495 53.1683 29.4896 53.3415 29.8906V30H52.0153ZM49.9167 29.0361C50.3131 29.0361 50.6891 28.9336 51.0446 28.7285C51.4001 28.5234 51.6575 28.2568 51.8171 27.9287V26.4111H50.8258C49.2764 26.4111 48.5016 26.8646 48.5016 27.7715C48.5016 28.168 48.6338 28.4779 48.8981 28.7012C49.1624 28.9245 49.502 29.0361 49.9167 29.0361ZM58.0169 29.1045C58.4681 29.1045 58.8623 28.9678 59.1995 28.6943C59.5368 28.4209 59.7236 28.0791 59.7601 27.6689H60.9564C60.9336 28.0928 60.7878 28.4961 60.5189 28.8789C60.25 29.2617 59.89 29.5671 59.4388 29.7949C58.9922 30.0228 58.5182 30.1367 58.0169 30.1367C57.0098 30.1367 56.2077 29.8018 55.6107 29.1318C55.0182 28.4574 54.722 27.5368 54.722 26.3701V26.1582C54.722 25.4382 54.8542 24.7979 55.1185 24.2373C55.3828 23.6768 55.7611 23.2415 56.2533 22.9316C56.75 22.6217 57.3356 22.4668 58.0101 22.4668C58.8395 22.4668 59.5277 22.7152 60.0745 23.2119C60.626 23.7087 60.9199 24.3535 60.9564 25.1465H59.7601C59.7236 24.668 59.5413 24.276 59.2132 23.9707C58.8896 23.6608 58.4886 23.5059 58.0101 23.5059C57.3675 23.5059 56.8685 23.7383 56.513 24.2031C56.1621 24.6634 55.9866 25.3311 55.9866 26.2061V26.4453C55.9866 27.2975 56.1621 27.9538 56.513 28.4141C56.8639 28.8743 57.3652 29.1045 58.0169 29.1045ZM65.4336 30.1367C64.431 30.1367 63.6152 29.8086 62.9863 29.1523C62.3574 28.4915 62.043 27.6097 62.043 26.5068V26.2744C62.043 25.5407 62.182 24.8867 62.46 24.3125C62.7425 23.7337 63.1344 23.2826 63.6357 22.959C64.1416 22.6309 64.6885 22.4668 65.2764 22.4668C66.2379 22.4668 66.9853 22.7835 67.5185 23.417C68.0518 24.0505 68.3184 24.9574 68.3184 26.1377V26.6641H63.3076C63.3258 27.3932 63.5378 27.9834 63.9434 28.4346C64.3535 28.8812 64.873 29.1045 65.5019 29.1045C65.9486 29.1045 66.3268 29.0133 66.6367 28.8311C66.9466 28.6488 67.2178 28.4072 67.4502 28.1064L68.2226 28.708C67.6029 29.6605 66.6732 30.1367 65.4336 30.1367ZM65.2764 23.5059C64.7659 23.5059 64.3376 23.6927 63.9912 24.0664C63.6448 24.4355 63.4307 24.9551 63.3486 25.625H67.0537V25.5293C67.0172 24.8867 66.8441 24.39 66.5342 24.0391C66.2243 23.6836 65.805 23.5059 65.2764 23.5059ZM76.0358 26.3838C76.0358 27.514 75.776 28.4232 75.2565 29.1113C74.737 29.7949 74.0397 30.1367 73.1647 30.1367C72.2305 30.1367 71.5081 29.8063 70.9977 29.1455L70.9362 30H69.7741V19.5H71.0387V23.417C71.5491 22.7835 72.2532 22.4668 73.151 22.4668C74.0488 22.4668 74.7529 22.8063 75.2633 23.4854C75.7783 24.1644 76.0358 25.0941 76.0358 26.2744V26.3838ZM74.7711 26.2402C74.7711 25.3789 74.6048 24.7135 74.2721 24.2441C73.9394 23.7747 73.4609 23.54 72.8366 23.54C72.0026 23.54 71.4033 23.9274 71.0387 24.7021V27.9014C71.4261 28.6761 72.0299 29.0635 72.8503 29.0635C73.4564 29.0635 73.928 28.8288 74.2653 28.3594C74.6025 27.89 74.7711 27.1836 74.7711 26.2402ZM77.2864 26.2334C77.2864 25.5088 77.4277 24.8571 77.7103 24.2783C77.9974 23.6995 78.3939 23.2529 78.8997 22.9385C79.4101 22.624 79.9912 22.4668 80.6429 22.4668C81.6501 22.4668 82.4635 22.8154 83.0833 23.5127C83.7077 24.21 84.0198 25.1374 84.0198 26.2949V26.3838C84.0198 27.1038 83.8808 27.751 83.6029 28.3252C83.3294 28.8949 82.9352 29.3392 82.4202 29.6582C81.9098 29.9772 81.3219 30.1367 80.6566 30.1367C79.654 30.1367 78.8405 29.7881 78.2161 29.0908C77.5963 28.3936 77.2864 27.4707 77.2864 26.3223V26.2334ZM78.5579 26.3838C78.5579 27.2041 78.7471 27.8626 79.1253 28.3594C79.5081 28.8561 80.0185 29.1045 80.6566 29.1045C81.2991 29.1045 81.8096 28.8538 82.1878 28.3525C82.5661 27.8467 82.7552 27.1403 82.7552 26.2334C82.7552 25.4222 82.5615 24.766 82.1741 24.2646C81.7913 23.7588 81.2809 23.5059 80.6429 23.5059C80.0185 23.5059 79.515 23.7542 79.1321 24.251C78.7493 24.7477 78.5579 25.4587 78.5579 26.3838ZM85.2568 26.2334C85.2568 25.5088 85.3981 24.8571 85.6806 24.2783C85.9678 23.6995 86.3642 23.2529 86.8701 22.9385C87.3805 22.624 87.9616 22.4668 88.6133 22.4668C89.6204 22.4668 90.4339 22.8154 91.0537 23.5127C91.678 24.21 91.9902 25.1374 91.9902 26.2949V26.3838C91.9902 27.1038 91.8512 27.751 91.5732 28.3252C91.2998 28.8949 90.9056 29.3392 90.3906 29.6582C89.8802 29.9772 89.2923 30.1367 88.6269 30.1367C87.6243 30.1367 86.8109 29.7881 86.1865 29.0908C85.5667 28.3936 85.2568 27.4707 85.2568 26.3223V26.2334ZM86.5283 26.3838C86.5283 27.2041 86.7174 27.8626 87.0957 28.3594C87.4785 28.8561 87.9889 29.1045 88.6269 29.1045C89.2695 29.1045 89.7799 28.8538 90.1582 28.3525C90.5364 27.8467 90.7256 27.1403 90.7256 26.2334C90.7256 25.4222 90.5319 24.766 90.1445 24.2646C89.7617 23.7588 89.2513 23.5059 88.6133 23.5059C87.9889 23.5059 87.4853 23.7542 87.1025 24.251C86.7197 24.7477 86.5283 25.4587 86.5283 26.3838ZM95.6266 26.5752L94.8336 27.4023V30H93.569V19.5H94.8336V25.8506L95.5104 25.0371L97.8141 22.6035H99.3522L96.4743 25.6934L99.6872 30H98.2038L95.6266 26.5752Z" fill="white"/>
<rect x="113" y="13" width="48" height="24" rx="12" fill="black" fill-opacity="0.2"/>
<path d="M128.271 29H127.182V21.7754L124.996 22.5781V21.5938L128.102 20.4277H128.271V29ZM131.618 28.4316C131.618 28.2441 131.673 28.0879 131.782 27.9629C131.895 27.8379 132.063 27.7754 132.286 27.7754C132.509 27.7754 132.677 27.8379 132.79 27.9629C132.907 28.0879 132.966 28.2441 132.966 28.4316C132.966 28.6113 132.907 28.7617 132.79 28.8828C132.677 29.0039 132.509 29.0645 132.286 29.0645C132.063 29.0645 131.895 29.0039 131.782 28.8828C131.673 28.7617 131.618 28.6113 131.618 28.4316ZM135.181 24.7227L135.615 20.4688H139.986V21.4707H136.535L136.277 23.7969C136.695 23.5508 137.17 23.4277 137.701 23.4277C138.478 23.4277 139.095 23.6855 139.552 24.2012C140.009 24.7129 140.238 25.4062 140.238 26.2812C140.238 27.1602 140 27.8535 139.523 28.3613C139.051 28.8652 138.388 29.1172 137.537 29.1172C136.783 29.1172 136.168 28.9082 135.691 28.4902C135.215 28.0723 134.943 27.4941 134.877 26.7559H135.902C135.968 27.2441 136.142 27.6133 136.424 27.8633C136.705 28.1094 137.076 28.2324 137.537 28.2324C138.041 28.2324 138.435 28.0605 138.72 27.7168C139.009 27.373 139.154 26.8984 139.154 26.293C139.154 25.7227 138.998 25.2656 138.685 24.9219C138.377 24.5742 137.965 24.4004 137.449 24.4004C136.976 24.4004 136.605 24.5039 136.336 24.7109L136.049 24.9453L135.181 24.7227ZM143.907 25.0332L142.864 26.1172V29H141.739V20.4688H142.864V24.6875L146.655 20.4688H148.014L144.657 24.2363L148.278 29H146.93L143.907 25.0332Z" fill="white"/>
</svg>
