<svg width="172" height="50" viewBox="0 0 172 50" fill="none" xmlns="http://www.w3.org/2000/svg">
<rect width="172" height="50" rx="5" fill="#C32AA3"/>
<path d="M26 16H18C16.6739 16 15.4021 16.5268 14.4645 17.4645C13.5268 18.4021 13 19.6739 13 21V29C13 30.3261 13.5268 31.5979 14.4645 32.5355C15.4021 33.4732 16.6739 34 18 34H26C27.3261 34 28.5979 33.4732 29.5355 32.5355C30.4732 31.5979 31 30.3261 31 29V21C31 19.6739 30.4732 18.4021 29.5355 17.4645C28.5979 16.5268 27.3261 16 26 16ZM29.25 29C29.2474 29.8611 28.9041 30.6863 28.2952 31.2952C27.6863 31.9041 26.8611 32.2474 26 32.25H18C17.1389 32.2474 16.3137 31.9041 15.7048 31.2952C15.0959 30.6863 14.7526 29.8611 14.75 29V21C14.7526 20.1389 15.0959 19.3137 15.7048 18.7048C16.3137 18.0959 17.1389 17.7526 18 17.75H26C26.8611 17.7526 27.6863 18.0959 28.2952 18.7048C28.9041 19.3137 29.2474 20.1389 29.25 21V29ZM27.75 20.25C27.75 20.4478 27.6914 20.6411 27.5815 20.8056C27.4716 20.97 27.3154 21.0982 27.1327 21.1739C26.95 21.2496 26.7489 21.2694 26.5549 21.2308C26.3609 21.1922 26.1827 21.097 26.0429 20.9571C25.903 20.8173 25.8078 20.6391 25.7692 20.4451C25.7306 20.2511 25.7504 20.05 25.8261 19.8673C25.9018 19.6846 26.03 19.5284 26.1944 19.4185C26.3589 19.3086 26.5522 19.25 26.75 19.25C27.0152 19.25 27.2696 19.3554 27.4571 19.5429C27.6446 19.7304 27.75 19.9848 27.75 20.25ZM22 20.5C21.11 20.5 20.24 20.7639 19.4999 21.2584C18.7599 21.7529 18.1831 22.4557 17.8425 23.2779C17.5019 24.1002 17.4128 25.005 17.5865 25.8779C17.7601 26.7508 18.1887 27.5526 18.818 28.182C19.4474 28.8113 20.2492 29.2399 21.1221 29.4135C21.995 29.5872 22.8998 29.4981 23.7221 29.1575C24.5443 28.8169 25.2471 28.2401 25.7416 27.5001C26.2361 26.76 26.5 25.89 26.5 25C26.5013 24.4087 26.3858 23.8229 26.1601 23.2764C25.9345 22.7298 25.603 22.2332 25.1849 21.8151C24.7668 21.397 24.2702 21.0655 23.7236 20.8399C23.1771 20.6142 22.5913 20.4987 22 20.5ZM22 27.75C21.4561 27.75 20.9244 27.5887 20.4722 27.2865C20.0199 26.9844 19.6675 26.5549 19.4593 26.0524C19.2512 25.5499 19.1967 24.997 19.3028 24.4635C19.4089 23.9301 19.6709 23.4401 20.0555 23.0555C20.4401 22.6709 20.9301 22.4089 21.4635 22.3028C21.997 22.1967 22.5499 22.2512 23.0524 22.4593C23.5549 22.6675 23.9844 23.0199 24.2865 23.4722C24.5887 23.9244 24.75 24.4561 24.75 25C24.75 25.7293 24.4603 26.4288 23.9445 26.9445C23.4288 27.4603 22.7293 27.75 22 27.75Z" fill="white"/>
<path d="M41.5635 30H40.251V20.0469H41.5635V30ZM44.9538 22.6035L44.9948 23.5332C45.5599 22.8223 46.2982 22.4668 47.2096 22.4668C48.7728 22.4668 49.5612 23.3486 49.5749 25.1123V30H48.3102V25.1055C48.3057 24.5723 48.1826 24.1781 47.9411 23.9229C47.7041 23.6676 47.3327 23.54 46.8268 23.54C46.4167 23.54 46.0566 23.6494 45.7467 23.8682C45.4368 24.0869 45.1953 24.374 45.0221 24.7295V30H43.7575V22.6035H44.9538ZM55.7747 28.0381C55.7747 27.6963 55.6449 27.432 55.3851 27.2451C55.1299 27.0537 54.681 26.8896 54.0384 26.7529C53.4004 26.6162 52.8922 26.4521 52.514 26.2607C52.1403 26.0693 51.8623 25.8415 51.68 25.5771C51.5023 25.3128 51.4134 24.9984 51.4134 24.6338C51.4134 24.0277 51.6686 23.515 52.179 23.0957C52.694 22.6764 53.3503 22.4668 54.1478 22.4668C54.9863 22.4668 55.6654 22.6833 56.1849 23.1162C56.709 23.5492 56.971 24.1029 56.971 24.7773H55.6995C55.6995 24.431 55.5514 24.1325 55.2552 23.8818C54.9635 23.6312 54.5944 23.5059 54.1478 23.5059C53.6875 23.5059 53.3275 23.6061 53.0677 23.8066C52.8079 24.0072 52.6781 24.2692 52.6781 24.5928C52.6781 24.8981 52.7988 25.1283 53.0404 25.2832C53.2819 25.4382 53.7171 25.5863 54.346 25.7275C54.9795 25.8688 55.4922 26.0374 55.8841 26.2334C56.276 26.4294 56.5654 26.6663 56.7523 26.9443C56.9437 27.2178 57.0394 27.5527 57.0394 27.9492C57.0394 28.61 56.7751 29.141 56.2464 29.542C55.7178 29.9385 55.0319 30.1367 54.1888 30.1367C53.5963 30.1367 53.0723 30.0319 52.6165 29.8223C52.1608 29.6126 51.8031 29.321 51.5433 28.9473C51.2881 28.569 51.1605 28.1611 51.1605 27.7236H52.4251C52.4479 28.1475 52.6165 28.4847 52.931 28.7354C53.25 28.9814 53.6693 29.1045 54.1888 29.1045C54.6673 29.1045 55.0501 29.0088 55.3372 28.8174C55.6289 28.6214 55.7747 28.3617 55.7747 28.0381ZM60.3887 20.8125V22.6035H61.7695V23.5811H60.3887V28.168C60.3887 28.4642 60.4502 28.6875 60.5732 28.8379C60.6963 28.9837 60.9059 29.0566 61.2021 29.0566C61.348 29.0566 61.5485 29.0293 61.8037 28.9746V30C61.471 30.0911 61.1475 30.1367 60.833 30.1367C60.2679 30.1367 59.8418 29.9658 59.5547 29.624C59.2676 29.2822 59.124 28.7969 59.124 28.168V23.5811H57.7773V22.6035H59.124V20.8125H60.3887ZM67.8053 30C67.7324 29.8542 67.6732 29.5944 67.6276 29.2207C67.0397 29.8314 66.3379 30.1367 65.5221 30.1367C64.793 30.1367 64.1937 29.9316 63.7243 29.5215C63.2594 29.1068 63.027 28.5827 63.027 27.9492C63.027 27.179 63.3187 26.582 63.902 26.1582C64.4899 25.7298 65.3148 25.5156 66.3766 25.5156H67.6071V24.9346C67.6071 24.4925 67.4749 24.1416 67.2106 23.8818C66.9463 23.6175 66.5566 23.4854 66.0417 23.4854C65.5905 23.4854 65.2122 23.5993 64.9069 23.8271C64.6016 24.055 64.4489 24.3307 64.4489 24.6543H63.1774C63.1774 24.2852 63.3073 23.9297 63.567 23.5879C63.8314 23.2415 64.1868 22.9681 64.6335 22.7676C65.0846 22.5671 65.5791 22.4668 66.1169 22.4668C66.9691 22.4668 67.6367 22.681 68.1198 23.1094C68.6029 23.5332 68.8535 24.1188 68.8717 24.8662V28.2705C68.8717 28.9495 68.9583 29.4896 69.1315 29.8906V30H67.8053ZM65.7067 29.0361C66.1032 29.0361 66.4792 28.9336 66.8346 28.7285C67.1901 28.5234 67.4476 28.2568 67.6071 27.9287V26.4111H66.6159C65.0664 26.4111 64.2917 26.8646 64.2917 27.7715C64.2917 28.168 64.4238 28.4779 64.6881 28.7012C64.9525 28.9245 65.292 29.0361 65.7067 29.0361ZM70.5394 26.2402C70.5394 25.0872 70.806 24.1712 71.3392 23.4922C71.8724 22.8086 72.5788 22.4668 73.4583 22.4668C74.3607 22.4668 75.0648 22.7858 75.5706 23.4238L75.6321 22.6035H76.7874V29.8223C76.7874 30.7793 76.5026 31.5335 75.9329 32.085C75.3678 32.6364 74.6068 32.9121 73.6497 32.9121C73.1165 32.9121 72.5947 32.7982 72.0843 32.5703C71.5739 32.3424 71.1842 32.0303 70.9154 31.6338L71.5716 30.875C72.1139 31.5449 72.777 31.8799 73.5609 31.8799C74.1761 31.8799 74.6546 31.7067 74.9964 31.3604C75.3428 31.014 75.5159 30.5264 75.5159 29.8975V29.2617C75.0101 29.8451 74.3196 30.1367 73.4446 30.1367C72.5788 30.1367 71.8769 29.7881 71.3392 29.0908C70.806 28.3936 70.5394 27.4434 70.5394 26.2402ZM71.8109 26.3838C71.8109 27.2178 71.9818 27.874 72.3236 28.3525C72.6654 28.8265 73.1439 29.0635 73.7591 29.0635C74.5566 29.0635 75.1422 28.7012 75.5159 27.9766V24.5996C75.1286 23.8932 74.5475 23.54 73.7728 23.54C73.1575 23.54 72.6767 23.7793 72.3304 24.2578C71.984 24.7363 71.8109 25.445 71.8109 26.3838ZM82.2627 23.7383C82.0713 23.7064 81.8639 23.6904 81.6406 23.6904C80.8112 23.6904 80.2484 24.0436 79.9521 24.75V30H78.6875V22.6035H79.918L79.9385 23.458C80.3532 22.7972 80.9411 22.4668 81.7021 22.4668C81.9482 22.4668 82.1351 22.4987 82.2627 22.5625V23.7383ZM87.7106 30C87.6377 29.8542 87.5784 29.5944 87.5329 29.2207C86.945 29.8314 86.2431 30.1367 85.4274 30.1367C84.6982 30.1367 84.0989 29.9316 83.6295 29.5215C83.1647 29.1068 82.9323 28.5827 82.9323 27.9492C82.9323 27.179 83.2239 26.582 83.8073 26.1582C84.3952 25.7298 85.22 25.5156 86.2819 25.5156H87.5124V24.9346C87.5124 24.4925 87.3802 24.1416 87.1159 23.8818C86.8515 23.6175 86.4619 23.4854 85.9469 23.4854C85.4958 23.4854 85.1175 23.5993 84.8122 23.8271C84.5068 24.055 84.3541 24.3307 84.3541 24.6543H83.0827C83.0827 24.2852 83.2125 23.9297 83.4723 23.5879C83.7366 23.2415 84.0921 22.9681 84.5387 22.7676C84.9899 22.5671 85.4844 22.4668 86.0221 22.4668C86.8743 22.4668 87.542 22.681 88.025 23.1094C88.5081 23.5332 88.7588 24.1188 88.777 24.8662V28.2705C88.777 28.9495 88.8636 29.4896 89.0368 29.8906V30H87.7106ZM85.612 29.0361C86.0084 29.0361 86.3844 28.9336 86.7399 28.7285C87.0954 28.5234 87.3528 28.2568 87.5124 27.9287V26.4111H86.5211C84.9717 26.4111 84.1969 26.8646 84.1969 27.7715C84.1969 28.168 84.3291 28.4779 84.5934 28.7012C84.8577 28.9245 85.1972 29.0361 85.612 29.0361ZM91.9349 22.6035L91.9691 23.4238C92.5114 22.7858 93.2428 22.4668 94.1634 22.4668C95.1979 22.4668 95.902 22.8633 96.2757 23.6562C96.5218 23.3008 96.8408 23.0137 97.2327 22.7949C97.6292 22.5762 98.0963 22.4668 98.6341 22.4668C100.256 22.4668 101.081 23.3258 101.109 25.0439V30H99.8441V25.1191C99.8441 24.5905 99.7233 24.1963 99.4818 23.9365C99.2402 23.6722 98.8346 23.54 98.265 23.54C97.7956 23.54 97.4059 23.6813 97.096 23.9639C96.7861 24.2419 96.6061 24.6178 96.556 25.0918V30H95.2845V25.1533C95.2845 24.0778 94.7581 23.54 93.7054 23.54C92.876 23.54 92.3086 23.8932 92.0032 24.5996V30H90.7386V22.6035H91.9349Z" fill="white"/>
<rect x="113" y="13" width="48" height="24" rx="12" fill="black" fill-opacity="0.2"/>
<path d="M127.271 29H126.182V21.7754L123.996 22.5781V21.5938L127.102 20.4277H127.271V29ZM130.981 24.7227L131.415 20.4688H135.786V21.4707H132.335L132.077 23.7969C132.495 23.5508 132.97 23.4277 133.501 23.4277C134.278 23.4277 134.895 23.6855 135.352 24.2012C135.809 24.7129 136.038 25.4062 136.038 26.2812C136.038 27.1602 135.8 27.8535 135.323 28.3613C134.85 28.8652 134.188 29.1172 133.337 29.1172C132.583 29.1172 131.968 28.9082 131.491 28.4902C131.015 28.0723 130.743 27.4941 130.677 26.7559H131.702C131.768 27.2441 131.942 27.6133 132.223 27.8633C132.505 28.1094 132.876 28.2324 133.337 28.2324C133.841 28.2324 134.235 28.0605 134.52 27.7168C134.809 27.373 134.954 26.8984 134.954 26.293C134.954 25.7227 134.798 25.2656 134.485 24.9219C134.177 24.5742 133.765 24.4004 133.249 24.4004C132.776 24.4004 132.405 24.5039 132.136 24.7109L131.848 24.9453L130.981 24.7227ZM142.607 25.3613C142.607 26.6309 142.39 27.5742 141.957 28.1914C141.523 28.8086 140.845 29.1172 139.924 29.1172C139.013 29.1172 138.34 28.8164 137.902 28.2148C137.465 27.6094 137.238 26.707 137.222 25.5078V24.0605C137.222 22.8066 137.439 21.875 137.873 21.2656C138.306 20.6562 138.986 20.3516 139.912 20.3516C140.83 20.3516 141.506 20.6465 141.939 21.2363C142.373 21.8223 142.595 22.7285 142.607 23.9551V25.3613ZM141.523 23.8789C141.523 22.9609 141.394 22.293 141.136 21.875C140.879 21.4531 140.47 21.2422 139.912 21.2422C139.357 21.2422 138.953 21.4512 138.699 21.8691C138.445 22.2871 138.314 22.9297 138.306 23.7969V25.5312C138.306 26.4531 138.439 27.1348 138.705 27.5762C138.974 28.0137 139.381 28.2324 139.924 28.2324C140.459 28.2324 140.855 28.0254 141.113 27.6113C141.375 27.1973 141.511 26.5449 141.523 25.6543V23.8789ZM146.481 25.0332L145.438 26.1172V29H144.313V20.4688H145.438V24.6875L149.229 20.4688H150.588L147.231 24.2363L150.852 29H149.504L146.481 25.0332Z" fill="white"/>
</svg>
