<svg width="172" height="50" viewBox="0 0 172 50" fill="none" xmlns="http://www.w3.org/2000/svg">
<rect width="172" height="50" rx="5" fill="#BD081C"/>
<path d="M41.4678 26.1035V30H40.1553V20.0469H43.8262C44.9154 20.0469 45.7676 20.3249 46.3828 20.8809C47.0026 21.4368 47.3125 22.1729 47.3125 23.0889C47.3125 24.055 47.0094 24.8001 46.4033 25.3242C45.8018 25.8438 44.9382 26.1035 43.8125 26.1035H41.4678ZM41.4678 25.0303H43.8262C44.528 25.0303 45.0658 24.8662 45.4395 24.5381C45.8132 24.2054 46 23.7269 46 23.1025C46 22.5101 45.8132 22.0361 45.4395 21.6807C45.0658 21.3252 44.5531 21.1406 43.9014 21.127H41.4678V25.0303ZM50.1491 30H48.8844V22.6035H50.1491V30ZM48.7819 20.6416C48.7819 20.4365 48.8434 20.2633 48.9665 20.1221C49.0941 19.9808 49.2809 19.9102 49.527 19.9102C49.7731 19.9102 49.96 19.9808 50.0876 20.1221C50.2152 20.2633 50.279 20.4365 50.279 20.6416C50.279 20.8467 50.2152 21.0176 50.0876 21.1543C49.96 21.291 49.7731 21.3594 49.527 21.3594C49.2809 21.3594 49.0941 21.291 48.9665 21.1543C48.8434 21.0176 48.7819 20.8467 48.7819 20.6416ZM53.3616 22.6035L53.4027 23.5332C53.9678 22.8223 54.706 22.4668 55.6175 22.4668C57.1807 22.4668 57.9691 23.3486 57.9827 25.1123V30H56.7181V25.1055C56.7135 24.5723 56.5905 24.1781 56.349 23.9229C56.112 23.6676 55.7406 23.54 55.2347 23.54C54.8245 23.54 54.4645 23.6494 54.1546 23.8682C53.8447 24.0869 53.6032 24.374 53.43 24.7295V30H52.1654V22.6035H53.3616ZM61.5918 20.8125V22.6035H62.9726V23.5811H61.5918V28.168C61.5918 28.4642 61.6533 28.6875 61.7764 28.8379C61.8994 28.9837 62.109 29.0566 62.4053 29.0566C62.5511 29.0566 62.7516 29.0293 63.0068 28.9746V30C62.6741 30.0911 62.3506 30.1367 62.0361 30.1367C61.471 30.1367 61.0449 29.9658 60.7578 29.624C60.4707 29.2822 60.3271 28.7969 60.3271 28.168V23.5811H58.9805V22.6035H60.3271V20.8125H61.5918ZM67.5114 30.1367C66.5088 30.1367 65.693 29.8086 65.0641 29.1523C64.4352 28.4915 64.1208 27.6097 64.1208 26.5068V26.2744C64.1208 25.5407 64.2598 24.8867 64.5378 24.3125C64.8203 23.7337 65.2122 23.2826 65.7135 22.959C66.2194 22.6309 66.7663 22.4668 67.3542 22.4668C68.3157 22.4668 69.0631 22.7835 69.5963 23.417C70.1295 24.0505 70.3961 24.9574 70.3961 26.1377V26.6641H65.3854C65.4036 27.3932 65.6155 27.9834 66.0211 28.4346C66.4313 28.8812 66.9508 29.1045 67.5797 29.1045C68.0264 29.1045 68.4046 29.0133 68.7145 28.8311C69.0244 28.6488 69.2956 28.4072 69.528 28.1064L70.3004 28.708C69.6807 29.6605 68.751 30.1367 67.5114 30.1367ZM67.3542 23.5059C66.8437 23.5059 66.4154 23.6927 66.069 24.0664C65.7226 24.4355 65.5085 24.9551 65.4264 25.625H69.1315V25.5293C69.095 24.8867 68.9219 24.39 68.612 24.0391C68.3021 23.6836 67.8828 23.5059 67.3542 23.5059ZM75.4271 23.7383C75.2357 23.7064 75.0283 23.6904 74.805 23.6904C73.9756 23.6904 73.4127 24.0436 73.1165 24.75V30H71.8519V22.6035H73.0823L73.1029 23.458C73.5176 22.7972 74.1055 22.4668 74.8665 22.4668C75.1126 22.4668 75.2995 22.4987 75.4271 22.5625V23.7383ZM79.5146 30.1367C78.512 30.1367 77.6963 29.8086 77.0674 29.1523C76.4385 28.4915 76.124 27.6097 76.124 26.5068V26.2744C76.124 25.5407 76.263 24.8867 76.541 24.3125C76.8236 23.7337 77.2155 23.2826 77.7168 22.959C78.2226 22.6309 78.7695 22.4668 79.3574 22.4668C80.319 22.4668 81.0664 22.7835 81.5996 23.417C82.1328 24.0505 82.3994 24.9574 82.3994 26.1377V26.6641H77.3887C77.4069 27.3932 77.6188 27.9834 78.0244 28.4346C78.4346 28.8812 78.9541 29.1045 79.583 29.1045C80.0296 29.1045 80.4079 29.0133 80.7178 28.8311C81.0277 28.6488 81.2988 28.4072 81.5312 28.1064L82.3037 28.708C81.6839 29.6605 80.7542 30.1367 79.5146 30.1367ZM79.3574 23.5059C78.847 23.5059 78.4186 23.6927 78.0723 24.0664C77.7259 24.4355 77.5117 24.9551 77.4297 25.625H81.1348V25.5293C81.0983 24.8867 80.9251 24.39 80.6152 24.0391C80.3053 23.6836 79.8861 23.5059 79.3574 23.5059ZM88.1618 28.0381C88.1618 27.6963 88.0319 27.432 87.7721 27.2451C87.5169 27.0537 87.068 26.8896 86.4254 26.7529C85.7874 26.6162 85.2793 26.4521 84.901 26.2607C84.5273 26.0693 84.2493 25.8415 84.067 25.5771C83.8893 25.3128 83.8004 24.9984 83.8004 24.6338C83.8004 24.0277 84.0556 23.515 84.5661 23.0957C85.081 22.6764 85.7373 22.4668 86.5348 22.4668C87.3734 22.4668 88.0524 22.6833 88.5719 23.1162C89.096 23.5492 89.3581 24.1029 89.3581 24.7773H88.0866C88.0866 24.431 87.9385 24.1325 87.6422 23.8818C87.3506 23.6312 86.9814 23.5059 86.5348 23.5059C86.0745 23.5059 85.7145 23.6061 85.4547 23.8066C85.195 24.0072 85.0651 24.2692 85.0651 24.5928C85.0651 24.8981 85.1859 25.1283 85.4274 25.2832C85.6689 25.4382 86.1041 25.5863 86.7331 25.7275C87.3665 25.8688 87.8792 26.0374 88.2711 26.2334C88.6631 26.4294 88.9525 26.6663 89.1393 26.9443C89.3307 27.2178 89.4264 27.5527 89.4264 27.9492C89.4264 28.61 89.1621 29.141 88.6334 29.542C88.1048 29.9385 87.4189 30.1367 86.5758 30.1367C85.9834 30.1367 85.4593 30.0319 85.0036 29.8223C84.5478 29.6126 84.1901 29.321 83.9303 28.9473C83.6751 28.569 83.5475 28.1611 83.5475 27.7236H84.8122C84.8349 28.1475 85.0036 28.4847 85.318 28.7354C85.637 28.9814 86.0563 29.1045 86.5758 29.1045C87.0543 29.1045 87.4372 29.0088 87.7243 28.8174C88.0159 28.6214 88.1618 28.3617 88.1618 28.0381ZM92.7757 20.8125V22.6035H94.1566V23.5811H92.7757V28.168C92.7757 28.4642 92.8372 28.6875 92.9603 28.8379C93.0833 28.9837 93.2929 29.0566 93.5892 29.0566C93.735 29.0566 93.9355 29.0293 94.1907 28.9746V30C93.8581 30.0911 93.5345 30.1367 93.22 30.1367C92.6549 30.1367 92.2288 29.9658 91.9417 29.624C91.6546 29.2822 91.511 28.7969 91.511 28.168V23.5811H90.1644V22.6035H91.511V20.8125H92.7757Z" fill="white"/>
<path fill-rule="evenodd" clip-rule="evenodd" d="M32 25C32 27.6522 30.9464 30.1957 29.071 32.0711C27.1957 33.9464 24.6521 35 22 35C21.2425 35.0004 20.4874 34.9132 19.75 34.74C19.6751 34.7239 19.6051 34.69 19.546 34.6413C19.4868 34.5926 19.4402 34.5304 19.41 34.46C19.3757 34.3917 19.3578 34.3164 19.3578 34.24C19.3578 34.1636 19.3757 34.0883 19.41 34.02L19.56 33.73C19.8173 33.2452 20.0057 32.7269 20.12 32.19L20.78 29.09C21.1686 29.4571 21.6279 29.7413 22.1299 29.9253C22.6319 30.1092 23.1661 30.1891 23.7 30.16C26.79 30.16 28.87 27.74 28.87 24.16C28.87 20.73 25.87 18.16 21.99 18.16C18.11 18.16 15.11 20.86 15.11 24.16C15.1158 24.9133 15.2769 25.6573 15.5832 26.3455C15.8894 27.0337 16.3343 27.6514 16.89 28.16C16.9531 28.2226 17.032 28.2668 17.1183 28.2879C17.2047 28.3091 17.2951 28.3063 17.38 28.28C17.4659 28.2568 17.5434 28.2098 17.6036 28.1443C17.6638 28.0788 17.7041 27.9975 17.72 27.91L17.92 27.01C17.9345 26.9347 17.9322 26.857 17.9132 26.7827C17.8941 26.7083 17.8589 26.6391 17.81 26.58C17.2166 25.9281 16.8822 25.0815 16.87 24.2C16.87 21.85 19.16 19.94 21.99 19.94C24.82 19.94 27.11 21.73 27.11 24.2C27.11 26.27 26.22 28.47 23.7 28.47C23.4179 28.5004 23.1326 28.4744 22.8607 28.3935C22.5888 28.3126 22.3357 28.1785 22.1161 27.9989C21.8965 27.8193 21.7148 27.5978 21.5815 27.3474C21.4483 27.0969 21.3662 26.8225 21.34 26.54L21.99 23.54C22.0676 23.2883 22.089 23.0226 22.0527 22.7617C22.0164 22.5008 21.9233 22.251 21.78 22.03C21.6941 21.8968 21.5795 21.7845 21.4445 21.7014C21.3095 21.6184 21.1576 21.5666 21 21.55C19.53 21.55 19.45 24.02 19.45 24.55C19.4427 25.2003 19.4962 25.8498 19.61 26.49L18.33 32.26C18.2218 32.7489 18.1781 33.2498 18.2 33.75C18.2008 33.8045 18.1885 33.8584 18.1641 33.9071C18.1398 33.9558 18.104 33.998 18.06 34.03C18.0129 34.0572 17.9594 34.0715 17.905 34.0715C17.8506 34.0715 17.7971 34.0572 17.75 34.03C16.1277 33.2683 14.7399 32.0847 13.7319 30.6029C12.7238 29.1211 12.1325 27.3956 12.0198 25.6069C11.9071 23.8183 12.2771 22.0323 13.0912 20.4356C13.9053 18.839 15.1335 17.4905 16.6474 16.5312C18.1612 15.5719 19.905 15.0371 21.6964 14.9827C23.4877 14.9283 25.2608 15.3563 26.8301 16.2219C28.3993 17.0876 29.7071 18.359 30.6166 19.9033C31.5261 21.4475 32.0039 23.2078 32 25Z" fill="white"/>
<rect x="113" y="13" width="48" height="24" rx="12" fill="black" fill-opacity="0.2"/>
<path d="M132.763 29H127.173V28.2207L130.126 24.9395C130.564 24.4434 130.864 24.041 131.028 23.7324C131.196 23.4199 131.28 23.0977 131.28 22.7656C131.28 22.3203 131.146 21.9551 130.876 21.6699C130.607 21.3848 130.247 21.2422 129.798 21.2422C129.259 21.2422 128.839 21.3965 128.538 21.7051C128.241 22.0098 128.093 22.4355 128.093 22.9824H127.009C127.009 22.1973 127.261 21.5625 127.765 21.0781C128.273 20.5938 128.95 20.3516 129.798 20.3516C130.591 20.3516 131.218 20.5605 131.679 20.9785C132.14 21.3926 132.37 21.9453 132.37 22.6367C132.37 23.4766 131.835 24.4766 130.765 25.6367L128.48 28.1152H132.763V29ZM134.445 24.7227L134.879 20.4688H139.25V21.4707H135.799L135.541 23.7969C135.959 23.5508 136.434 23.4277 136.965 23.4277C137.742 23.4277 138.359 23.6855 138.816 24.2012C139.273 24.7129 139.502 25.4062 139.502 26.2812C139.502 27.1602 139.264 27.8535 138.787 28.3613C138.314 28.8652 137.652 29.1172 136.801 29.1172C136.047 29.1172 135.432 28.9082 134.955 28.4902C134.479 28.0723 134.207 27.4941 134.141 26.7559H135.166C135.232 27.2441 135.406 27.6133 135.687 27.8633C135.969 28.1094 136.34 28.2324 136.801 28.2324C137.305 28.2324 137.699 28.0605 137.984 27.7168C138.273 27.373 138.418 26.8984 138.418 26.293C138.418 25.7227 138.262 25.2656 137.949 24.9219C137.641 24.5742 137.229 24.4004 136.713 24.4004C136.24 24.4004 135.869 24.5039 135.6 24.7109L135.312 24.9453L134.445 24.7227ZM143.171 25.0332L142.128 26.1172V29H141.003V20.4688H142.128V24.6875L145.919 20.4688H147.278L143.921 24.2363L147.542 29H146.194L143.171 25.0332Z" fill="white"/>
</svg>
