<svg width="172" height="50" viewBox="0 0 172 50" fill="none" xmlns="http://www.w3.org/2000/svg">
<rect width="172" height="50" rx="5" fill="#00ACED"/>
<path fill-rule="evenodd" clip-rule="evenodd" d="M32 19.45C31.4832 20.1391 30.8585 20.7401 30.15 21.23C30.15 21.41 30.15 21.59 30.15 21.78C30.1528 23.3982 29.8337 25.0008 29.2111 26.4945C28.5886 27.9882 27.6752 29.3431 26.5239 30.4803C25.3727 31.6176 24.0068 32.5145 22.5056 33.1187C21.0044 33.723 19.3981 34.0225 17.78 34C15.8904 34.0063 14.0251 33.575 12.33 32.74C12.2853 32.7205 12.2473 32.6883 12.2206 32.6474C12.1939 32.6066 12.1798 32.5588 12.18 32.51V32.4C12.18 32.331 12.2074 32.2649 12.2562 32.2162C12.3049 32.1674 12.371 32.14 12.44 32.14C14.2974 32.0788 16.0885 31.4351 17.56 30.3C16.7362 30.2834 15.9339 30.0343 15.2456 29.5813C14.5573 29.1284 14.0111 28.49 13.67 27.74C13.6527 27.6989 13.6463 27.654 13.6513 27.6097C13.6564 27.5654 13.6728 27.5231 13.6989 27.487C13.725 27.4508 13.76 27.422 13.8005 27.4033C13.8409 27.3845 13.8855 27.3765 13.93 27.38C14.441 27.4313 14.957 27.3838 15.45 27.24C14.5455 27.0523 13.7239 26.5822 13.1039 25.8974C12.4838 25.2127 12.0973 24.3487 12 23.43C11.9965 23.3855 12.0045 23.3409 12.0233 23.3004C12.042 23.26 12.0708 23.225 12.107 23.1989C12.1431 23.1728 12.1854 23.1564 12.2297 23.1513C12.274 23.1463 12.3189 23.1527 12.36 23.17C12.858 23.3897 13.3957 23.5054 13.94 23.51C13.1492 22.9912 12.5525 22.2251 12.2432 21.3314C11.9338 20.4377 11.9292 19.4666 12.23 18.57C12.2614 18.4819 12.3151 18.4035 12.3859 18.3424C12.4567 18.2813 12.5422 18.2397 12.6339 18.2215C12.7256 18.2034 12.8205 18.2094 12.9092 18.2389C12.9979 18.2684 13.0774 18.3205 13.14 18.39C15.3345 20.7245 18.3497 22.1156 21.55 22.27C21.468 21.9431 21.4277 21.6071 21.43 21.27C21.4446 20.4058 21.7158 19.5655 22.209 18.8558C22.7022 18.1461 23.3952 17.5989 24.2 17.2838C25.0048 16.9688 25.8851 16.9 26.729 17.0863C27.573 17.2726 28.3426 17.7055 28.94 18.33C29.7729 18.1714 30.5781 17.8918 31.33 17.5C31.357 17.4832 31.3882 17.4742 31.42 17.4742C31.4518 17.4742 31.483 17.4832 31.51 17.5C31.5268 17.527 31.5358 17.5582 31.5358 17.59C31.5358 17.6218 31.5268 17.653 31.51 17.68C31.1458 18.5136 30.5305 19.2128 29.75 19.68C30.4335 19.6008 31.105 19.4396 31.75 19.2C31.7765 19.1819 31.8079 19.1723 31.84 19.1723C31.8721 19.1723 31.9035 19.1819 31.93 19.2C31.9525 19.2103 31.9724 19.2253 31.9885 19.2441C32.0046 19.2629 32.0163 19.285 32.023 19.3088C32.0297 19.3326 32.0311 19.3575 32.0271 19.3819C32.0231 19.4063 32.0139 19.4295 32 19.45Z" fill="white"/>
<path d="M47.0322 21.127H43.833V30H42.5273V21.127H39.335V20.0469H47.0322V21.127ZM54.4489 28.2568L55.8708 22.6035H57.1354L54.9821 30H53.9567L52.1589 24.3945L50.4089 30H49.3835L47.237 22.6035H48.4948L49.9508 28.1406L51.6735 22.6035H52.6921L54.4489 28.2568ZM59.7874 30H58.5228V22.6035H59.7874V30ZM58.4202 20.6416C58.4202 20.4365 58.4818 20.2633 58.6048 20.1221C58.7324 19.9808 58.9193 19.9102 59.1654 19.9102C59.4115 19.9102 59.5983 19.9808 59.7259 20.1221C59.8535 20.2633 59.9173 20.4365 59.9173 20.6416C59.9173 20.8467 59.8535 21.0176 59.7259 21.1543C59.5983 21.291 59.4115 21.3594 59.1654 21.3594C58.9193 21.3594 58.7324 21.291 58.6048 21.1543C58.4818 21.0176 58.4202 20.8467 58.4202 20.6416ZM63.5195 20.8125V22.6035H64.9004V23.5811H63.5195V28.168C63.5195 28.4642 63.581 28.6875 63.7041 28.8379C63.8271 28.9837 64.0368 29.0566 64.333 29.0566C64.4788 29.0566 64.6794 29.0293 64.9346 28.9746V30C64.6019 30.0911 64.2783 30.1367 63.9639 30.1367C63.3988 30.1367 62.9726 29.9658 62.6855 29.624C62.3984 29.2822 62.2549 28.7969 62.2549 28.168V23.5811H60.9082V22.6035H62.2549V20.8125H63.5195ZM68.0856 20.8125V22.6035H69.4665V23.5811H68.0856V28.168C68.0856 28.4642 68.1471 28.6875 68.2702 28.8379C68.3932 28.9837 68.6029 29.0566 68.8991 29.0566C69.0449 29.0566 69.2454 29.0293 69.5006 28.9746V30C69.168 30.0911 68.8444 30.1367 68.5299 30.1367C67.9648 30.1367 67.5387 29.9658 67.2516 29.624C66.9645 29.2822 66.821 28.7969 66.821 28.168V23.5811H65.4743V22.6035H66.821V20.8125H68.0856ZM74.0052 30.1367C73.0026 30.1367 72.1868 29.8086 71.5579 29.1523C70.929 28.4915 70.6146 27.6097 70.6146 26.5068V26.2744C70.6146 25.5407 70.7536 24.8867 71.0316 24.3125C71.3141 23.7337 71.706 23.2826 72.2073 22.959C72.7132 22.6309 73.2601 22.4668 73.848 22.4668C74.8096 22.4668 75.557 22.7835 76.0902 23.417C76.6234 24.0505 76.89 24.9574 76.89 26.1377V26.6641H71.8792C71.8974 27.3932 72.1094 27.9834 72.515 28.4346C72.9251 28.8812 73.4446 29.1045 74.0736 29.1045C74.5202 29.1045 74.8984 29.0133 75.2083 28.8311C75.5182 28.6488 75.7894 28.4072 76.0218 28.1064L76.7943 28.708C76.1745 29.6605 75.2448 30.1367 74.0052 30.1367ZM73.848 23.5059C73.3376 23.5059 72.9092 23.6927 72.5628 24.0664C72.2165 24.4355 72.0023 24.9551 71.9202 25.625H75.6253V25.5293C75.5889 24.8867 75.4157 24.39 75.1058 24.0391C74.7959 23.6836 74.3766 23.5059 73.848 23.5059ZM81.9209 23.7383C81.7295 23.7064 81.5221 23.6904 81.2988 23.6904C80.4694 23.6904 79.9066 24.0436 79.6103 24.75V30H78.3457V22.6035H79.5762L79.5967 23.458C80.0114 22.7972 80.5993 22.4668 81.3603 22.4668C81.6064 22.4668 81.7933 22.4987 81.9209 22.5625V23.7383Z" fill="white"/>
<rect x="113" y="13" width="48" height="24" rx="12" fill="black" fill-opacity="0.2"/>
<path d="M127.271 29H126.182V21.7754L123.996 22.5781V21.5938L127.102 20.4277H127.271V29ZM135.833 25.3613C135.833 26.6309 135.616 27.5742 135.182 28.1914C134.749 28.8086 134.071 29.1172 133.149 29.1172C132.239 29.1172 131.565 28.8164 131.128 28.2148C130.69 27.6094 130.464 26.707 130.448 25.5078V24.0605C130.448 22.8066 130.665 21.875 131.098 21.2656C131.532 20.6562 132.212 20.3516 133.138 20.3516C134.056 20.3516 134.731 20.6465 135.165 21.2363C135.598 21.8223 135.821 22.7285 135.833 23.9551V25.3613ZM134.749 23.8789C134.749 22.9609 134.62 22.293 134.362 21.875C134.104 21.4531 133.696 21.2422 133.138 21.2422C132.583 21.2422 132.179 21.4512 131.925 21.8691C131.671 22.2871 131.54 22.9297 131.532 23.7969V25.5312C131.532 26.4531 131.665 27.1348 131.931 27.5762C132.2 28.0137 132.606 28.2324 133.149 28.2324C133.684 28.2324 134.081 28.0254 134.339 27.6113C134.6 27.1973 134.737 26.5449 134.749 25.6543V23.8789ZM142.607 25.3613C142.607 26.6309 142.39 27.5742 141.957 28.1914C141.523 28.8086 140.845 29.1172 139.924 29.1172C139.013 29.1172 138.34 28.8164 137.902 28.2148C137.465 27.6094 137.238 26.707 137.222 25.5078V24.0605C137.222 22.8066 137.439 21.875 137.873 21.2656C138.306 20.6562 138.986 20.3516 139.912 20.3516C140.83 20.3516 141.506 20.6465 141.939 21.2363C142.373 21.8223 142.595 22.7285 142.607 23.9551V25.3613ZM141.523 23.8789C141.523 22.9609 141.394 22.293 141.136 21.875C140.879 21.4531 140.47 21.2422 139.912 21.2422C139.357 21.2422 138.953 21.4512 138.699 21.8691C138.445 22.2871 138.314 22.9297 138.306 23.7969V25.5312C138.306 26.4531 138.439 27.1348 138.705 27.5762C138.974 28.0137 139.381 28.2324 139.924 28.2324C140.459 28.2324 140.855 28.0254 141.113 27.6113C141.375 27.1973 141.511 26.5449 141.523 25.6543V23.8789ZM146.481 25.0332L145.438 26.1172V29H144.313V20.4688H145.438V24.6875L149.229 20.4688H150.588L147.231 24.2363L150.852 29H149.504L146.481 25.0332Z" fill="white"/>
</svg>
